<?xml version="1.0" encoding="UTF-8" standalone="no"?>
<!DOCTYPE svg PUBLIC "-//W3C//DTD SVG 20010904//EN"
        "http://www.w3.org/TR/2001/REC-SVG-20010904/DTD/svg10.dtd">

<svg xmlns="http://www.w3.org/2000/svg"
     width="95.6735mm" height="17.9494mm"
     viewBox="0 0 1130 212">
    <path id="Selection"
          fill="none" stroke="black" stroke-width="1"
          d="M 0.00,0.00
           C 0.00,0.00 43.00,7.58 43.00,7.58
             43.00,7.58 132.00,24.25 132.00,24.25
             132.00,24.25 159.00,29.39 159.00,29.39
             159.00,29.39 169.40,31.98 169.40,31.98
             169.40,31.98 171.00,40.00 171.00,40.00
             171.00,40.00 171.00,172.00 171.00,172.00
             171.00,172.00 169.40,180.02 169.40,180.02
             169.40,180.02 159.00,182.61 159.00,182.61
             159.00,182.61 132.00,187.75 132.00,187.75
             132.00,187.75 43.00,204.42 43.00,204.42
             43.00,204.42 0.00,212.00 0.00,212.00
             0.00,212.00 0.00,0.00 0.00,0.00 Z
           M 959.00,181.00
           C 959.00,181.00 959.00,40.00 959.00,40.00
             959.00,40.00 960.60,31.98 960.60,31.98
             960.60,31.98 972.00,29.08 972.00,29.08
             972.00,29.08 998.00,24.20 998.00,24.20
             998.00,24.20 1078.00,9.20 1078.00,9.20
             1078.00,9.20 1130.00,0.00 1130.00,0.00
             1130.00,0.00 1130.00,212.00 1130.00,212.00
             1130.00,212.00 1079.00,203.00 1079.00,203.00
             1079.00,203.00 992.00,186.75 992.00,186.75
             992.00,186.75 959.00,181.00 959.00,181.00 Z
           M 235.00,96.00
           C 234.95,101.11 234.60,106.67 231.35,110.90
             225.55,118.45 212.77,118.77 206.39,111.79
             202.31,107.32 202.01,98.79 202.00,93.00
             202.00,93.00 202.00,56.00 202.00,56.00
             202.05,51.66 202.73,44.72 205.01,41.02
             210.13,32.70 223.67,31.70 230.47,38.53
             234.36,42.43 234.89,47.80 235.00,53.00
             235.00,53.00 225.00,53.00 225.00,53.00
             224.40,42.82 217.63,43.05 214.74,46.43
             212.82,48.67 213.01,52.23 213.00,55.00
             213.00,55.00 213.00,97.00 213.00,97.00
             213.07,100.59 213.66,105.32 218.02,106.18
             223.16,107.19 224.74,100.50 226.58,98.85
             228.43,97.19 232.58,96.49 235.00,96.00 Z
           M 252.00,34.53
           C 264.17,32.53 272.82,38.13 273.00,51.00
             273.00,51.00 273.00,98.00 273.00,98.00
             273.00,100.53 273.11,103.59 272.35,106.00
             270.11,113.16 262.30,117.52 255.00,116.80
             244.62,115.78 240.12,108.75 240.00,99.00
             240.00,99.00 240.00,52.00 240.00,52.00
             240.11,42.96 243.00,37.42 252.00,34.53 Z
           M 400.00,113.00
           C 390.88,120.70 376.22,117.04 376.00,99.00
             376.00,99.00 376.00,54.00 376.00,54.00
             376.01,48.89 375.97,44.55 379.13,40.11
             385.07,31.98 399.39,31.88 405.35,40.11
             408.38,44.19 408.00,48.18 408.00,53.00
             408.00,53.00 399.00,53.00 399.00,53.00
             397.94,43.86 391.40,42.07 387.60,47.15
             385.87,49.46 386.02,52.27 386.00,55.00
             386.00,55.00 386.00,97.00 386.00,97.00
             386.08,100.86 386.62,104.91 391.02,106.16
             394.71,107.21 397.63,104.32 398.79,100.98
             398.79,100.98 398.79,80.00 398.79,80.00
             398.79,80.00 391.00,80.00 391.00,80.00
             391.00,80.00 391.00,71.00 391.00,71.00
             391.00,71.00 408.00,71.00 408.00,71.00
             408.00,71.00 408.00,115.00 408.00,115.00
             408.00,115.00 400.00,113.00 400.00,113.00 Z
           M 556.00,98.00
           C 556.62,100.59 557.22,103.48 559.42,105.26
             563.89,108.90 571.92,105.12 569.72,94.96
             566.92,81.98 548.46,71.43 548.01,53.00
             547.89,47.69 548.12,43.56 551.79,39.27
             557.66,32.54 570.57,32.22 576.35,39.27
             579.66,43.21 579.96,48.09 580.00,53.00
             580.00,53.00 570.00,53.00 570.00,53.00
             569.86,50.67 569.88,48.33 568.26,46.43
             563.90,41.31 555.38,46.17 557.81,55.00
             560.88,66.12 579.57,79.04 579.99,96.00
             580.11,101.12 579.88,106.75 576.57,110.96
             569.96,119.35 555.59,118.35 549.70,109.96
             546.69,105.68 547.00,100.95 547.00,96.00
             547.00,96.00 556.00,98.00 556.00,98.00 Z
           M 833.00,96.00
           C 837.30,112.38 819.10,122.66 807.10,113.35
             801.38,108.91 801.01,101.62 801.00,95.00
             801.00,95.00 801.00,61.00 801.00,61.00
             801.00,54.78 800.43,47.67 803.44,42.00
             808.46,32.55 822.69,31.38 829.77,39.11
             833.21,42.86 833.61,48.14 834.00,53.00
             834.00,53.00 824.00,53.00 824.00,53.00
             823.43,43.42 817.12,42.62 813.56,46.43
             810.81,49.37 811.01,55.21 811.00,59.00
             811.00,59.00 811.00,94.00 811.00,94.00
             811.04,97.41 811.24,101.92 813.70,104.57
             817.43,108.59 823.34,106.12 824.00,98.00
             824.00,98.00 833.00,96.00 833.00,96.00 Z
           M 281.00,115.00
           C 281.00,115.00 281.00,44.00 281.00,44.00
             281.02,34.64 281.83,35.01 291.00,35.00
             291.00,35.00 291.00,106.00 291.00,106.00
             291.00,106.00 306.00,106.00 306.00,106.00
             306.00,106.00 306.00,115.00 306.00,115.00
             306.00,115.00 281.00,115.00 281.00,115.00 Z
           M 312.00,35.00
           C 312.00,35.00 322.00,35.00 322.00,35.00
             322.00,35.00 322.00,106.00 322.00,106.00
             322.00,106.00 337.00,106.00 337.00,106.00
             337.00,106.00 337.00,115.00 337.00,115.00
             337.00,115.00 312.00,115.00 312.00,115.00
             312.00,115.00 312.00,35.00 312.00,35.00 Z
           M 343.00,35.00
           C 343.00,35.00 363.00,35.00 363.00,35.00
             363.00,35.00 368.98,36.60 368.98,36.60
             368.98,36.60 370.00,45.00 370.00,45.00
             370.00,45.00 353.00,45.00 353.00,45.00
             353.00,45.00 353.00,69.00 353.00,69.00
             353.00,69.00 365.00,69.00 365.00,69.00
             365.00,69.00 365.00,79.00 365.00,79.00
             365.00,79.00 353.00,79.00 353.00,79.00
             353.00,79.00 353.00,106.00 353.00,106.00
             353.00,106.00 370.00,106.00 370.00,106.00
             370.00,106.00 370.00,115.00 370.00,115.00
             370.00,115.00 343.00,115.00 343.00,115.00
             343.00,115.00 343.00,35.00 343.00,35.00 Z
           M 416.00,115.00
           C 416.00,115.00 416.00,44.00 416.00,44.00
             416.02,34.64 416.83,35.01 426.00,35.00
             426.00,35.00 426.00,115.00 426.00,115.00
             426.00,115.00 416.00,115.00 416.00,115.00 Z
           M 435.00,35.00
           C 442.29,35.01 444.85,34.12 445.00,42.00
             445.00,42.00 445.00,95.00 445.00,95.00
             445.01,99.31 444.82,104.68 450.02,106.16
             457.49,108.28 457.99,98.68 458.00,94.00
             458.00,94.00 458.00,42.00 458.00,42.00
             458.15,34.12 460.71,35.01 468.00,35.00
             468.00,35.00 468.00,97.00 468.00,97.00
             467.99,101.66 468.12,105.94 465.30,109.96
             459.21,118.63 445.07,119.08 438.39,110.96
             434.83,106.62 435.01,103.25 435.00,98.00
             435.00,98.00 435.00,35.00 435.00,35.00 Z
           M 476.00,115.00
           C 476.00,115.00 476.00,42.00 476.00,42.00
             476.10,37.07 476.45,35.05 481.99,35.04
             483.36,35.03 485.15,35.11 486.27,35.99
             488.45,37.72 489.76,48.80 490.40,52.00
             492.28,61.40 496.64,87.88 500.00,95.00
             500.00,95.00 507.20,57.00 507.20,57.00
             507.20,57.00 511.70,37.29 511.70,37.29
             513.25,34.55 519.02,34.12 520.98,36.60
             522.23,38.19 522.00,42.01 522.00,44.00
             522.00,44.00 522.00,115.00 522.00,115.00
             522.00,115.00 513.00,115.00 513.00,115.00
             513.00,115.00 513.00,87.00 513.00,87.00
             513.00,87.00 512.00,70.00 512.00,70.00
             512.00,70.00 504.00,115.00 504.00,115.00
             504.00,115.00 494.00,115.00 494.00,115.00
             494.00,115.00 485.00,68.00 485.00,68.00
             485.00,68.00 485.00,115.00 485.00,115.00
             485.00,115.00 476.00,115.00 476.00,115.00 Z
           M 587.00,35.00
           C 587.00,35.00 614.00,35.00 614.00,35.00
             614.00,35.00 614.00,45.00 614.00,45.00
             614.00,45.00 597.00,45.00 597.00,45.00
             597.00,45.00 597.00,69.00 597.00,69.00
             597.00,69.00 609.00,69.00 609.00,69.00
             609.00,69.00 609.00,79.00 609.00,79.00
             609.00,79.00 597.00,79.00 597.00,79.00
             597.00,79.00 597.00,106.00 597.00,106.00
             597.00,106.00 614.00,106.00 614.00,106.00
             614.00,106.00 614.00,115.00 614.00,115.00
             614.00,115.00 587.00,115.00 587.00,115.00
             587.00,115.00 587.00,35.00 587.00,35.00 Z
           M 621.00,35.00
           C 627.86,35.00 641.21,34.29 646.91,38.01
             654.34,42.86 653.01,52.35 653.00,60.00
             653.00,62.51 653.09,65.60 652.43,68.00
             651.75,70.53 650.30,72.75 649.00,75.00
             654.37,78.29 653.99,83.34 654.00,89.00
             654.00,89.00 654.00,115.00 654.00,115.00
             654.00,115.00 644.00,115.00 644.00,115.00
             644.00,115.00 644.00,89.00 644.00,89.00
             643.96,86.07 643.99,82.70 641.57,80.60
             639.16,78.50 634.09,79.00 631.00,79.00
             631.00,79.00 631.00,115.00 631.00,115.00
             631.00,115.00 621.00,115.00 621.00,115.00
             621.00,115.00 621.00,35.00 621.00,35.00 Z
           M 659.00,115.00
           C 659.00,115.00 667.92,60.00 667.92,60.00
             668.55,56.22 670.88,39.50 672.31,37.31
             674.26,34.35 678.87,35.00 682.00,35.00
             682.00,35.00 696.00,115.00 696.00,115.00
             696.00,115.00 686.00,115.00 686.00,115.00
             685.64,113.03 684.96,107.75 683.98,106.31
             681.74,103.04 673.66,104.00 670.00,104.00
             670.00,104.00 669.00,115.00 669.00,115.00
             669.00,115.00 659.00,115.00 659.00,115.00 Z
           M 701.00,115.00
           C 701.00,115.00 701.00,44.00 701.00,44.00
             701.02,34.70 701.78,34.99 711.00,35.00
             725.48,35.02 733.92,37.56 734.00,54.00
             734.05,64.66 736.63,80.16 723.00,83.47
             720.06,84.18 715.16,84.00 712.00,84.00
             712.00,84.00 712.00,115.00 712.00,115.00
             712.00,115.00 701.00,115.00 701.00,115.00 Z
           M 741.00,115.00
           C 741.00,115.00 741.00,44.00 741.00,44.00
             741.02,34.64 741.83,35.01 751.00,35.00
             751.00,35.00 751.00,70.00 751.00,70.00
             751.00,70.00 765.00,70.00 765.00,70.00
             765.00,70.00 765.00,35.00 765.00,35.00
             774.17,35.01 774.98,34.64 775.00,44.00
             775.00,44.00 775.00,115.00 775.00,115.00
             775.00,115.00 765.00,115.00 765.00,115.00
             765.00,115.00 765.00,80.00 765.00,80.00
             765.00,80.00 751.00,80.00 751.00,80.00
             751.00,80.00 751.00,115.00 751.00,115.00
             751.00,115.00 741.00,115.00 741.00,115.00 Z
           M 783.00,115.00
           C 783.00,115.00 783.00,44.00 783.00,44.00
             783.02,34.64 783.83,35.01 793.00,35.00
             793.00,35.00 793.00,115.00 793.00,115.00
             793.00,115.00 783.00,115.00 783.00,115.00 Z
           M 840.00,35.00
           C 840.00,35.00 850.00,35.00 850.00,35.00
             850.00,35.00 850.00,63.00 850.00,63.00
             850.00,63.00 850.00,94.00 850.00,94.00
             850.00,96.77 849.79,100.44 851.17,102.89
             853.76,107.48 859.38,107.50 861.98,102.89
             863.19,100.73 863.00,97.43 863.00,95.00
             863.00,95.00 863.00,43.00 863.00,43.00
             863.06,34.60 864.34,35.01 873.00,35.00
             873.00,35.00 873.00,98.00 873.00,98.00
             873.00,100.53 873.11,103.59 872.35,106.00
             870.11,113.16 862.30,117.52 855.00,116.80
             843.04,115.62 840.02,107.45 840.00,97.00
             840.00,97.00 840.00,35.00 840.00,35.00 Z
           M 882.00,35.00
           C 882.00,35.00 886.00,35.00 886.00,35.00
             893.68,35.15 892.71,36.54 895.40,50.00
             895.40,50.00 905.00,96.00 905.00,96.00
             905.00,96.00 917.00,35.00 917.00,35.00
             917.00,35.00 927.00,35.00 927.00,35.00
             927.00,35.00 927.00,115.00 927.00,115.00
             927.00,115.00 918.00,115.00 918.00,115.00
             918.00,115.00 918.00,88.00 918.00,88.00
             918.00,88.00 917.00,71.00 917.00,71.00
             917.00,71.00 911.20,105.00 911.20,105.00
             910.16,110.36 910.29,115.96 903.05,114.85
             898.02,114.08 898.31,108.04 897.58,104.00
             897.58,104.00 891.00,72.00 891.00,72.00
             891.00,72.00 891.00,115.00 891.00,115.00
             891.00,115.00 882.00,115.00 882.00,115.00
             882.00,115.00 882.00,35.00 882.00,35.00 Z
           M 76.00,44.32
           C 69.51,45.78 54.68,50.74 62.31,59.89
             63.08,60.81 64.04,61.62 65.02,62.30
             71.05,66.50 83.82,67.60 91.00,66.57
             95.77,65.89 101.99,64.96 105.93,62.15
             111.84,57.98 111.91,52.51 105.93,48.48
             98.26,43.36 84.90,43.35 76.00,44.32 Z
           M 255.02,44.45
           C 249.78,46.63 250.04,48.76 250.00,54.00
             250.00,54.00 250.00,97.00 250.00,97.00
             250.06,101.01 250.25,105.45 255.04,106.53
             262.49,108.21 262.99,101.13 263.00,96.00
             263.00,96.00 263.00,53.00 263.00,53.00
             262.88,46.98 261.65,43.94 255.02,44.45 Z
           M 631.00,70.00
           C 634.29,69.97 639.00,70.16 641.40,67.49
             644.11,64.49 643.87,49.37 640.69,46.74
             638.22,44.70 634.03,45.01 631.00,45.00
             631.00,45.00 631.00,70.00 631.00,70.00 Z
           M 712.00,74.00
           C 714.96,74.00 719.31,74.40 721.69,72.40
             725.03,69.59 724.05,59.28 724.00,55.00
             723.96,52.48 724.04,49.52 722.26,47.51
             719.88,44.81 715.29,45.03 712.00,45.00
             712.00,45.00 712.00,74.00 712.00,74.00 Z
           M 1087.00,72.00
           C 1085.60,66.82 1080.14,53.88 1075.67,51.17
             1074.19,50.28 1072.68,50.14 1071.00,50.04
             1071.00,50.04 1043.00,53.91 1043.00,53.91
             1043.00,53.91 1031.00,53.91 1031.00,53.91
             1031.00,53.91 1017.00,52.86 1017.00,52.86
             1014.71,52.44 1011.70,51.59 1009.63,52.86
             1004.77,56.32 1001.48,72.17 1001.00,78.00
             1005.05,77.27 1005.79,77.05 1010.00,77.00
             1014.16,76.96 1016.90,76.91 1021.00,77.90
             1025.53,78.98 1030.67,80.58 1032.98,85.02
             1034.37,87.71 1034.03,93.83 1034.00,97.00
             1033.88,107.33 1029.87,123.37 1028.08,134.00
             1027.59,136.89 1025.73,145.42 1026.64,147.79
             1027.75,150.69 1032.33,152.41 1035.00,153.58
             1044.39,157.67 1050.90,159.97 1061.00,162.00
             1060.99,147.09 1054.73,121.07 1052.08,105.00
             1051.01,98.54 1048.66,86.27 1053.28,81.18
             1061.79,71.78 1075.84,74.00 1087.00,72.00 Z
           M 66.00,54.00
           C 74.31,49.45 85.70,48.94 95.00,50.44
             97.38,50.82 104.72,52.11 103.55,55.88
             102.63,58.83 96.64,59.91 94.00,60.38
             87.96,61.48 72.30,61.57 67.72,57.19
             66.54,56.06 66.53,55.36 66.00,54.00 Z
           M 678.00,61.00
           C 678.00,61.00 674.92,73.00 674.92,73.00
             674.92,73.00 672.00,95.00 672.00,95.00
             672.00,95.00 683.00,95.00 683.00,95.00
             683.00,95.00 678.00,61.00 678.00,61.00 Z
           M 27.00,120.00
           C 24.92,110.77 21.69,95.09 25.14,86.00
             26.86,81.48 31.75,75.52 37.00,75.43
             44.96,75.30 54.46,88.20 64.00,92.32
             67.51,93.83 73.92,95.16 75.26,90.00
             75.66,88.43 75.06,87.33 73.68,86.58
             70.57,84.91 67.33,87.43 59.04,78.98
             50.91,70.71 48.96,62.38 34.00,63.04
             21.28,63.60 15.14,74.37 15.00,86.00
             14.86,97.94 17.91,111.57 27.00,120.00 Z
           M 145.00,120.00
           C 147.06,116.85 149.99,112.37 151.49,109.00
             156.95,96.75 159.57,76.95 147.96,67.39
             144.69,64.69 141.22,63.26 137.00,63.04
             120.02,62.16 118.50,73.98 109.00,81.73
             103.83,85.94 99.99,85.53 94.00,87.00
             96.86,95.28 102.07,95.04 109.00,91.36
             109.00,91.36 127.00,77.93 127.00,77.93
             130.16,76.05 133.40,74.48 137.00,76.19
             148.01,81.40 148.17,97.71 146.56,108.00
             145.94,111.95 144.21,116.03 145.00,120.00 Z
           M 39.00,81.00
           C 28.84,83.18 29.99,91.66 30.00,100.00
             30.02,111.47 34.44,128.60 41.04,138.00
             41.04,138.00 57.92,157.00 57.92,157.00
             57.92,157.00 68.00,171.00 68.00,171.00
             67.83,153.98 53.28,144.23 45.06,131.00
             37.36,118.59 36.47,105.10 37.83,91.00
             38.30,86.20 37.70,86.33 39.00,81.00 Z
           M 104.00,171.00
           C 111.04,155.24 122.77,148.00 129.21,139.00
             136.32,129.07 140.99,111.16 141.00,99.00
             141.01,91.09 141.34,83.01 132.00,81.00
             134.79,96.59 134.71,117.26 125.91,131.00
             125.91,131.00 107.21,156.00 107.21,156.00
             104.35,160.80 101.81,165.42 104.00,171.00 Z
           M 45.00,85.00
           C 42.94,90.19 43.06,98.48 43.72,104.00
             44.56,111.12 43.83,113.39 46.55,121.00
             49.72,129.87 54.99,134.80 60.58,142.00
             63.70,146.03 66.25,150.53 70.00,154.00
             69.48,143.34 64.75,141.23 59.04,133.00
             54.88,127.02 51.55,120.08 49.76,113.00
             49.76,113.00 48.81,90.00 48.81,90.00
             48.01,88.02 46.40,86.54 45.00,85.00 Z
           M 127.00,85.00
           C 118.78,90.69 122.16,90.66 122.00,105.00
             121.84,118.51 115.18,128.67 107.21,139.00
             103.68,143.57 99.69,147.98 102.00,154.00
             102.00,154.00 109.50,143.00 109.50,143.00
             114.83,136.02 119.99,131.46 123.54,123.00
             128.68,110.75 127.00,97.89 127.00,85.00 Z
           M 56.00,94.00
           C 52.96,101.67 55.53,117.66 61.00,124.00
             61.00,124.00 60.12,108.00 60.12,108.00
             60.12,108.00 60.12,99.09 60.12,99.09
             60.12,99.09 56.00,94.00 56.00,94.00 Z
           M 116.00,95.00
           C 116.00,95.00 110.84,98.39 110.84,98.39
             110.84,98.39 110.84,106.00 110.84,106.00
             110.84,106.00 110.84,124.00 110.84,124.00
             116.64,109.90 116.00,109.85 116.00,95.00 Z
           M 62.00,125.00
           C 62.00,125.00 61.00,125.00 61.00,125.00
             61.00,125.00 62.00,126.00 62.00,126.00
             62.00,126.00 62.00,125.00 62.00,125.00 Z
           M 562.00,134.00
           C 563.32,126.99 564.64,124.26 572.00,124.00
             569.91,129.47 568.09,132.99 562.00,134.00 Z
           M 732.00,134.00
           C 733.78,127.91 735.30,124.55 742.00,124.00
             740.50,130.11 738.54,133.46 732.00,134.00 Z
           M 218.00,135.00
           C 218.00,135.00 233.00,135.00 233.00,135.00
             233.00,135.00 233.00,141.00 233.00,141.00
             233.00,141.00 223.00,141.00 223.00,141.00
             223.00,141.00 223.00,155.00 223.00,155.00
             223.00,155.00 230.00,155.00 230.00,155.00
             230.00,155.00 230.00,160.00 230.00,160.00
             230.00,160.00 223.00,160.00 223.00,160.00
             223.00,160.00 223.00,178.00 223.00,178.00
             223.00,178.00 218.00,178.00 218.00,178.00
             218.00,178.00 218.00,135.00 218.00,135.00 Z
           M 236.00,135.00
           C 236.00,135.00 250.00,135.00 250.00,135.00
             250.00,135.00 250.00,141.00 250.00,141.00
             250.00,141.00 241.00,141.00 241.00,141.00
             241.00,141.00 241.00,153.00 241.00,153.00
             241.00,153.00 248.00,153.00 248.00,153.00
             248.00,153.00 248.00,159.00 248.00,159.00
             248.00,159.00 241.00,159.00 241.00,159.00
             241.00,159.00 241.00,173.00 241.00,173.00
             241.00,173.00 250.00,173.00 250.00,173.00
             250.00,173.00 250.00,178.00 250.00,178.00
             250.00,178.00 236.00,178.00 236.00,178.00
             236.00,178.00 236.00,135.00 236.00,135.00 Z
           M 254.00,135.00
           C 258.21,135.00 264.20,134.60 267.77,137.09
             272.83,140.60 271.47,151.32 269.00,156.00
             273.38,161.47 272.00,171.22 272.00,178.00
             272.00,178.00 266.00,178.00 266.00,178.00
             266.00,173.93 267.18,162.35 263.69,160.02
             262.28,159.09 260.60,159.13 259.00,159.00
             259.00,159.00 259.00,178.00 259.00,178.00
             259.00,178.00 254.00,178.00 254.00,178.00
             254.00,178.00 254.00,135.00 254.00,135.00 Z
           M 275.00,135.00
           C 275.00,135.00 290.00,135.00 290.00,135.00
             290.00,135.00 290.00,141.00 290.00,141.00
             290.00,141.00 281.00,141.00 281.00,141.00
             281.00,141.00 281.00,153.00 281.00,153.00
             281.00,153.00 287.00,153.00 287.00,153.00
             287.00,153.00 287.00,159.00 287.00,159.00
             287.00,159.00 281.00,159.00 281.00,159.00
             281.00,159.00 281.00,173.00 281.00,173.00
             281.00,173.00 290.00,173.00 290.00,173.00
             290.00,173.00 290.00,178.00 290.00,178.00
             290.00,178.00 275.00,178.00 275.00,178.00
             275.00,178.00 275.00,135.00 275.00,135.00 Z
           M 293.00,135.00
           C 293.00,135.00 298.44,136.02 298.44,136.02
             298.44,136.02 301.37,143.00 301.37,143.00
             301.37,143.00 306.00,160.00 306.00,160.00
             306.00,160.00 306.00,135.00 306.00,135.00
             306.00,135.00 311.00,135.00 311.00,135.00
             311.00,135.00 311.00,178.00 311.00,178.00
             311.00,178.00 305.85,176.40 305.85,176.40
             305.85,176.40 302.87,168.00 302.87,168.00
             302.87,168.00 298.00,151.00 298.00,151.00
             298.00,151.00 298.00,178.00 298.00,178.00
             298.00,178.00 293.00,178.00 293.00,178.00
             293.00,178.00 293.00,135.00 293.00,135.00 Z
           M 332.00,168.00
           C 331.93,170.68 332.05,173.38 330.26,175.67
             327.06,179.59 319.94,179.83 316.74,175.67
             314.71,173.12 315.01,169.14 315.00,166.00
             315.00,166.00 315.00,147.00 315.00,147.00
             315.00,144.52 314.81,141.27 316.02,139.06
             318.53,134.48 325.96,133.58 329.57,137.31
             331.76,139.57 331.83,142.08 332.00,145.01
             332.00,145.01 327.00,145.01 327.00,145.01
             324.92,141.08 321.97,139.71 320.22,145.01
             320.22,145.01 320.22,163.00 320.22,163.00
             320.01,165.50 319.75,170.50 322.41,171.83
             325.61,173.44 325.65,169.10 332.00,168.00 Z
           M 335.00,135.00
           C 335.00,135.00 350.00,135.00 350.00,135.00
             350.00,135.00 350.00,141.00 350.00,141.00
             350.00,141.00 341.00,141.00 341.00,141.00
             341.00,141.00 341.00,153.00 341.00,153.00
             341.00,153.00 347.00,153.00 347.00,153.00
             347.00,153.00 347.00,159.00 347.00,159.00
             347.00,159.00 341.00,159.00 341.00,159.00
             341.00,159.00 341.00,173.00 341.00,173.00
             341.00,173.00 350.00,173.00 350.00,173.00
             350.00,173.00 350.00,178.00 350.00,178.00
             350.00,178.00 335.00,178.00 335.00,178.00
             335.00,178.00 335.00,135.00 335.00,135.00 Z
           M 364.00,173.00
           C 364.59,158.72 351.43,155.44 352.81,143.00
             353.55,136.27 361.12,132.37 366.72,136.74
             369.43,138.85 369.70,141.86 370.00,145.00
             363.10,144.43 361.34,138.74 359.12,143.20
             357.82,145.82 360.02,148.92 361.44,151.00
             364.91,156.08 369.35,160.53 369.89,167.00
             370.93,179.35 358.70,182.02 353.74,174.89
             352.16,172.63 352.15,170.61 352.00,168.00
             356.14,168.69 356.71,168.96 358.00,173.00
             358.00,173.00 364.00,173.00 364.00,173.00 Z
           M 408.00,173.00
           C 411.86,172.68 415.18,171.90 414.04,167.00
             412.73,161.34 403.87,155.12 403.11,146.00
             402.03,133.24 413.85,133.47 417.57,137.31
             419.76,139.57 419.83,142.08 420.00,145.00
             413.32,144.47 411.37,138.72 409.12,143.20
             407.57,146.31 411.15,150.63 412.88,153.00
             417.21,158.94 421.46,164.10 419.61,171.98
             417.93,179.15 409.86,180.69 405.23,176.57
             402.38,174.04 402.21,171.51 402.00,168.00
             406.28,168.51 407.24,168.59 408.00,173.00 Z
           M 423.00,135.00
           C 425.93,135.00 436.48,134.45 438.39,136.02
             440.90,138.10 438.50,143.48 437.67,146.00
             437.67,146.00 429.00,173.00 429.00,173.00
             429.00,173.00 440.00,173.00 440.00,173.00
             440.00,173.00 440.00,178.00 440.00,178.00
             436.92,178.00 425.61,178.62 423.61,176.98
             421.10,174.91 423.50,169.52 424.33,167.00
             424.33,167.00 433.00,141.00 433.00,141.00
             433.00,141.00 423.00,141.00 423.00,141.00
             423.00,141.00 423.00,135.00 423.00,135.00 Z
           M 441.00,178.00
           C 441.00,178.00 446.59,146.00 446.59,146.00
             447.68,139.50 446.73,135.61 454.00,135.00
             454.00,135.00 461.00,178.00 461.00,178.00
             456.01,177.60 455.59,176.95 455.00,172.00
             449.55,172.19 448.23,172.41 447.00,178.00
             447.00,178.00 441.00,178.00 441.00,178.00 Z
           M 464.00,135.00
           C 464.00,135.00 470.00,135.00 470.00,135.00
             470.00,135.00 471.00,148.00 471.00,148.00
             471.64,144.59 473.92,137.13 477.27,135.60
             478.69,134.95 480.48,135.05 482.00,135.00
             480.17,140.24 474.38,150.31 475.11,155.00
             475.11,155.00 482.00,178.00 482.00,178.00
             482.00,178.00 476.00,178.00 476.00,178.00
             476.00,178.00 470.00,160.00 470.00,160.00
             470.00,160.00 470.00,178.00 470.00,178.00
             470.00,178.00 464.00,178.00 464.00,178.00
             464.00,178.00 464.00,135.00 464.00,135.00 Z
           M 485.00,135.00
           C 493.25,135.69 489.64,138.70 492.00,147.00
             493.74,140.57 494.63,135.61 502.00,135.00
             502.00,135.00 495.71,153.00 495.71,153.00
             495.71,153.00 503.00,178.00 503.00,178.00
             493.96,177.71 496.89,174.42 491.00,161.00
             491.00,164.29 491.88,175.02 489.40,176.98
             488.17,177.96 486.47,177.88 485.00,178.00
             485.00,178.00 485.00,135.00 485.00,135.00 Z
           M 509.04,135.74
           C 519.88,133.10 521.98,138.63 522.00,148.00
             522.00,148.00 522.00,167.00 522.00,167.00
             521.94,171.52 521.62,175.90 516.90,177.99
             512.07,180.14 506.67,177.90 504.74,172.98
             504.02,171.15 504.03,168.94 504.00,167.00
             503.94,162.40 503.49,143.12 504.74,140.04
             505.79,137.45 506.81,137.04 509.04,135.74 Z
           M 526.00,135.00
           C 526.00,135.00 532.00,135.00 532.00,135.00
             532.00,135.00 532.00,173.00 532.00,173.00
             532.00,173.00 540.00,173.00 540.00,173.00
             540.00,173.00 540.00,178.00 540.00,178.00
             540.00,178.00 526.00,178.00 526.00,178.00
             526.00,178.00 526.00,135.00 526.00,135.00 Z
           M 542.00,135.00
           C 542.00,135.00 548.00,135.00 548.00,135.00
             548.00,135.00 548.00,173.00 548.00,173.00
             548.00,173.00 556.00,173.00 556.00,173.00
             556.00,173.00 556.00,178.00 556.00,178.00
             556.00,178.00 542.00,178.00 542.00,178.00
             542.00,178.00 542.00,135.00 542.00,135.00 Z
           M 559.00,135.00
           C 559.00,135.00 573.00,135.00 573.00,135.00
             573.00,135.00 573.00,141.00 573.00,141.00
             573.00,141.00 564.00,141.00 564.00,141.00
             564.00,141.00 564.00,153.00 564.00,153.00
             564.00,153.00 571.00,153.00 571.00,153.00
             571.00,153.00 571.00,159.00 571.00,159.00
             571.00,159.00 564.00,159.00 564.00,159.00
             564.00,159.00 564.00,173.00 564.00,173.00
             564.00,173.00 573.00,173.00 573.00,173.00
             573.00,173.00 573.00,178.00 573.00,178.00
             573.00,178.00 559.00,178.00 559.00,178.00
             559.00,178.00 559.00,135.00 559.00,135.00 Z
           M 594.00,178.00
           C 588.43,177.79 583.22,180.24 579.30,176.57
             574.49,172.07 575.91,153.75 576.00,147.00
             576.05,143.62 576.18,140.05 578.65,137.43
             581.68,134.22 592.76,131.84 594.00,145.01
             594.00,145.01 588.00,145.01 588.00,145.01
             586.16,139.39 582.87,140.66 582.07,145.01
             582.07,145.01 582.07,163.00 582.07,163.00
             582.00,165.26 581.52,171.80 585.04,171.80
             586.30,171.80 587.22,170.83 587.83,169.84
             589.35,167.36 589.00,161.95 589.00,159.00
             589.00,159.00 584.00,159.00 584.00,159.00
             584.00,159.00 584.00,154.00 584.00,154.00
             584.00,154.00 594.00,154.00 594.00,154.00
             594.00,154.00 594.00,178.00 594.00,178.00 Z
           M 598.00,135.00
           C 598.00,135.00 603.00,135.00 603.00,135.00
             603.00,135.00 603.00,178.00 603.00,178.00
             603.00,178.00 598.00,178.00 598.00,178.00
             598.00,178.00 598.00,135.00 598.00,135.00 Z
           M 620.00,135.00
           C 622.16,135.18 624.28,135.04 625.40,137.31
             626.13,138.79 626.00,142.29 626.00,144.00
             626.00,144.00 625.47,171.00 625.47,171.00
             624.20,176.18 620.55,179.49 615.00,178.62
             610.24,177.87 608.13,174.44 607.17,170.00
             607.17,170.00 607.17,142.00 607.17,142.00
             607.11,136.52 607.44,135.46 613.00,135.00
             613.00,135.00 613.00,165.00 613.00,165.00
             613.05,167.40 613.52,173.88 617.70,171.83
             620.04,170.69 619.96,167.18 620.00,165.00
             620.00,165.00 620.00,135.00 620.00,135.00 Z
           M 630.00,135.00
           C 630.00,135.00 636.00,135.00 636.00,135.00
             636.00,135.00 642.00,165.00 642.00,165.00
             642.00,165.00 646.35,145.00 646.35,145.00
             647.92,138.08 647.15,135.57 654.00,135.00
             654.00,135.00 654.00,178.00 654.00,178.00
             654.00,178.00 649.00,178.00 649.00,178.00
             649.00,178.00 648.00,157.00 648.00,157.00
             648.00,157.00 645.00,178.00 645.00,178.00
             645.00,178.00 639.00,178.00 639.00,178.00
             639.00,178.00 635.00,158.00 635.00,158.00
             635.00,158.00 635.00,178.00 635.00,178.00
             635.00,178.00 630.00,178.00 630.00,178.00
             630.00,178.00 630.00,135.00 630.00,135.00 Z
           M 708.00,135.00
           C 712.87,135.00 719.95,134.45 723.57,138.30
             727.04,142.00 727.04,155.00 723.57,158.70
             721.06,161.38 717.43,161.71 714.00,162.00
             714.00,162.00 714.00,178.00 714.00,178.00
             714.00,178.00 708.00,178.00 708.00,178.00
             708.00,178.00 708.00,135.00 708.00,135.00 Z
           M 729.00,178.00
           C 729.00,178.00 729.00,144.00 729.00,144.00
             729.00,144.00 730.60,136.02 730.60,136.02
             730.60,136.02 744.00,135.00 744.00,135.00
             744.00,135.00 744.00,141.00 744.00,141.00
             744.00,141.00 735.00,141.00 735.00,141.00
             735.00,141.00 735.00,153.00 735.00,153.00
             735.00,153.00 741.00,153.00 741.00,153.00
             741.00,153.00 741.00,159.00 741.00,159.00
             741.00,159.00 735.00,159.00 735.00,159.00
             735.00,159.00 735.00,173.00 735.00,173.00
             735.00,173.00 744.00,173.00 744.00,173.00
             744.00,173.00 744.00,178.00 744.00,178.00
             744.00,178.00 729.00,178.00 729.00,178.00 Z
           M 765.00,168.00
           C 764.54,170.23 764.09,172.91 762.86,174.87
             759.86,179.65 752.47,180.09 749.01,175.61
             746.74,172.67 747.01,168.51 747.00,165.00
             746.99,160.50 746.49,143.11 747.74,140.04
             750.23,133.92 758.53,134.20 761.57,136.74
             763.61,138.44 764.26,141.55 765.00,144.00
             765.00,144.00 759.00,145.00 759.00,145.00
             758.09,142.29 755.55,138.95 753.60,143.19
             752.61,145.32 752.94,161.56 753.00,165.00
             753.04,167.01 752.95,170.77 755.26,171.67
             758.17,172.80 757.69,168.87 765.00,168.00 Z
           M 766.00,168.00
           C 773.68,168.91 772.33,172.66 775.42,172.58
             779.25,172.47 778.60,167.28 777.56,165.00
             774.26,157.79 763.81,149.75 767.74,140.04
             770.08,134.27 778.09,133.71 781.69,137.31
             783.96,139.59 783.90,142.04 784.00,145.00
             784.00,145.00 779.00,145.00 779.00,145.00
             775.49,138.42 771.77,142.43 773.47,147.00
             776.13,154.16 786.80,160.79 783.93,172.00
             781.95,179.72 773.53,180.32 769.42,176.49
             767.01,174.25 766.48,171.07 766.00,168.00 Z
           M 836.00,139.00
           C 836.00,139.00 846.00,135.00 846.00,135.00
             846.00,135.00 846.00,178.00 846.00,178.00
             846.00,178.00 840.60,175.69 840.60,175.69
             840.60,175.69 840.00,169.00 840.00,169.00
             840.00,169.00 840.00,144.00 840.00,144.00
             840.00,144.00 836.00,144.00 836.00,144.00
             836.00,144.00 836.00,139.00 836.00,139.00 Z
           M 862.00,163.00
           C 848.88,166.14 849.89,156.40 850.00,147.00
             850.04,144.08 850.06,140.70 851.85,138.23
             854.67,134.36 862.06,133.87 865.30,137.43
             868.16,140.58 867.99,146.02 868.00,150.00
             868.01,155.70 869.04,170.58 866.15,174.89
             862.40,180.49 850.77,181.82 850.00,168.00
             854.14,168.69 854.71,168.96 856.00,173.00
             862.67,171.88 861.98,168.85 862.00,163.00 Z
           M 871.00,145.00
           C 871.10,142.04 871.04,139.59 873.31,137.31
             877.03,133.60 884.30,134.43 887.06,139.06
             889.51,143.96 887.16,150.35 887.06,155.42
             887.38,158.68 889.15,159.05 888.98,167.00
             888.92,170.12 888.66,173.26 886.49,175.72
             882.85,179.85 875.06,179.89 872.17,174.87
             870.98,172.79 871.06,170.31 871.00,168.00
             877.34,169.09 877.38,173.45 880.70,171.83
             883.77,170.34 883.55,162.75 881.40,160.60
             879.90,159.10 877.94,159.16 876.00,159.00
             876.00,159.00 876.00,154.00 876.00,154.00
             878.50,153.45 880.27,153.22 881.68,150.77
             884.39,146.11 880.54,136.43 876.00,145.00
             876.00,145.00 871.00,145.00 871.00,145.00 Z
           M 897.04,135.74
           C 907.71,133.15 909.95,138.67 910.00,148.00
             910.00,148.00 910.00,167.00 910.00,167.00
             909.93,171.91 909.23,176.27 903.98,178.26
             899.47,179.98 894.00,177.65 892.51,172.96
             891.96,171.24 892.01,168.81 892.00,167.00
             891.97,162.37 891.50,143.09 892.74,140.04
             893.79,137.45 894.81,137.04 897.04,135.74 Z
           M 512.99,140.74
           C 509.13,142.26 510.01,145.32 510.00,149.00
             510.00,149.00 510.00,166.00 510.00,166.00
             510.04,168.08 509.92,172.37 513.00,172.37
             516.56,172.37 516.00,166.30 516.00,164.00
             516.00,164.00 516.00,147.00 516.00,147.00
             515.93,143.69 516.37,141.85 512.99,140.74 Z
           M 858.26,140.91
           C 854.97,143.13 855.94,148.36 856.00,152.00
             856.04,154.05 856.09,159.34 859.74,157.60
             862.96,156.07 862.79,143.85 860.42,141.66
             859.31,140.63 858.39,140.94 858.26,140.91 Z
           M 900.26,140.82
           C 897.30,142.99 898.01,145.52 898.00,149.00
             898.00,149.00 898.00,166.00 898.00,166.00
             898.04,168.11 898.12,173.42 901.74,172.26
             904.49,171.37 904.00,166.27 904.00,164.00
             904.00,164.00 904.00,147.00 904.00,147.00
             903.94,143.49 904.29,141.18 900.26,140.82 Z
           M 259.00,153.00
           C 260.37,152.96 262.32,153.05 263.57,152.43
             266.04,151.19 269.11,141.84 259.00,141.00
             259.00,141.00 259.00,153.00 259.00,153.00 Z
           M 714.00,156.00
           C 715.47,155.88 717.17,155.96 718.40,154.98
             720.68,153.18 720.68,143.82 718.40,142.02
             717.17,141.04 715.47,141.12 714.00,141.00
             714.00,141.00 714.00,156.00 714.00,156.00 Z
           M 452.00,151.00
           C 449.54,155.23 449.11,162.12 449.00,167.00
             449.00,167.00 454.00,167.00 454.00,167.00
             454.00,167.00 452.00,151.00 452.00,151.00 Z
           M 679.47,153.04
           C 685.72,151.01 685.52,157.24 682.70,158.34
             680.31,159.29 676.21,157.25 679.47,153.04 Z
           M 807.32,153.08
           C 813.22,151.76 813.23,157.14 810.58,158.41
             808.01,159.64 803.40,157.46 807.32,153.08 Z"/>
</svg>
